<?xml version="1.0" standalone="no"?>
<!DOCTYPE svg PUBLIC "-//W3C//DTD SVG 20010904//EN"
 "http://www.w3.org/TR/2001/REC-SVG-20010904/DTD/svg10.dtd">
<svg version="1.0" xmlns="http://www.w3.org/2000/svg"
 width="360.000000pt" height="360.000000pt" viewBox="0 0 360.000000 360.000000"
 preserveAspectRatio="xMidYMid meet">

<g transform="translate(0.000000,360.000000) scale(0.100000,-0.100000)"
fill="#000000" stroke="none">
<path d="M1610 3340 c-351 -49 -648 -196 -896 -444 -170 -171 -284 -343 -355
-536 -26 -73 -30 -95 -28 -177 1 -51 5 -93 10 -93 5 0 10 9 10 20 1 11 2 26 3
33 1 6 -2 18 -7 25 -7 9 -6 11 4 7 10 -4 20 16 37 72 108 355 404 698 755 875
113 56 294 114 422 134 145 22 419 15 545 -15 205 -47 414 -142 491 -223 115
-120 242 -344 306 -537 91 -279 98 -630 17 -909 -78 -269 -220 -502 -421 -692
-262 -249 -559 -378 -925 -405 -167 -12 -475 37 -587 94 -114 59 -320 262
-425 419 -66 100 -143 252 -166 330 -7 23 -16 42 -19 42 -3 0 -7 12 -8 26 0
15 -5 29 -10 33 -4 3 -9 24 -11 47 -7 106 -19 93 -21 -23 -1 -112 1 -128 29
-203 70 -193 184 -365 354 -536 223 -223 473 -358 789 -426 137 -29 435 -32
572 -5 360 72 603 203 845 454 207 214 335 459 402 766 19 87 22 132 22 307 0
174 -3 220 -22 306 -136 625 -603 1090 -1220 1215 -112 23 -389 33 -492 19z"/>
<path d="M1735 2122 l-80 -157 -173 -25 -172 -25 125 -126 126 -125 -30 -170
c-16 -93 -28 -171 -26 -172 2 -2 72 32 157 77 l153 80 153 -80 c85 -45 156
-79 158 -76 3 3 -8 81 -24 173 l-30 169 126 121 c70 67 125 124 122 127 -3 3
-79 16 -168 29 -90 12 -167 25 -171 28 -5 3 -43 74 -85 158 -42 83 -77 152
-79 152 -1 0 -38 -71 -82 -158z"/>
<path d="M331 2044 c0 -11 3 -14 6 -6 3 7 2 16 -1 19 -3 4 -6 -2 -5 -13z"/>
<path d="M311 1864 c0 -11 3 -14 6 -6 3 7 2 16 -1 19 -3 4 -6 -2 -5 -13z"/>
<path d="M313 1795 c0 -27 2 -38 4 -22 2 15 2 37 0 50 -2 12 -4 0 -4 -28z"/>
<path d="M311 1724 c0 -11 3 -14 6 -6 3 7 2 16 -1 19 -3 4 -6 -2 -5 -13z"/>
<path d="M321 1624 c0 -11 3 -14 6 -6 3 7 2 16 -1 19 -3 4 -6 -2 -5 -13z"/>
</g>
</svg>
